<mxfile host="app.diagrams.net" modified="2023-10-17T16:36:27.092Z" agent="Mozilla/5.0 (Macintosh; Intel Mac OS X 10.15; rv:109.0) Gecko/20100101 Firefox/118.0" version="22.0.4" etag="ZYKv3qFT9xTpgMcADWhf" type="github">
  <diagram name="第 1 页" id="qJaP09IFYJL46MVruwZU">
    <mxGraphModel>
      <root>
        <mxCell id="0" />
        <mxCell id="1" parent="0" />
      </root>
    </mxGraphModel>
  </diagram>
</mxfile>
